/* XPM */
static char * exit_close_xpm[] = {
"64 64 611 2",
"  	c #6E7219",
". 	c #777A20",
"+ 	c #7B7E22",
"@ 	c #6D731A",
"# 	c #73761B",
"$ 	c #72751B",
"% 	c #70751C",
"& 	c #787B21",
"* 	c #72761C",
"= 	c #6B7118",
"- 	c #72761D",
"; 	c #6C7118",
"> 	c #78771F",
", 	c #A48C36",
"' 	c #73751B",
") 	c #71741A",
"! 	c #70741A",
"~ 	c #AE8E3C",
"{ 	c #A77E3D",
"] 	c #AB8E3A",
"^ 	c #AA9335",
"/ 	c #B99E3B",
"( 	c #76791F",
"_ 	c #7E8125",
": 	c #73761C",
"< 	c #7B7E23",
"[ 	c #70721C",
"} 	c #927F2E",
"| 	c #7F7A22",
"1 	c #C19F40",
"2 	c #91842B",
"3 	c #71751B",
"4 	c #75781E",
"5 	c #7A7D22",
"6 	c #72771E",
"7 	c #737712",
"8 	c #75781D",
"9 	c #757920",
"0 	c #717416",
"a 	c #70740E",
"b 	c #71741B",
"c 	c #6B6E1A",
"d 	c #7A7E22",
"e 	c #7E834F",
"f 	c #9DA2A2",
"g 	c #82875E",
"h 	c #6F7419",
"i 	c #928F6F",
"j 	c #AEABA0",
"k 	c #6C7115",
"l 	c #7C846B",
"m 	c #A09C94",
"n 	c #828977",
"o 	c #9F9E8C",
"p 	c #787B37",
"q 	c #787323",
"r 	c #858565",
"s 	c #656C1E",
"t 	c #AAA79B",
"u 	c #A89882",
"v 	c #7A7C3E",
"w 	c #727517",
"x 	c #838563",
"y 	c #7B7E52",
"z 	c #787A1F",
"A 	c #7C7E22",
"B 	c #72751C",
"C 	c #797C21",
"D 	c #74771D",
"E 	c #787B1F",
"F 	c #777A21",
"G 	c #7C7F22",
"H 	c #7C7E23",
"I 	c #6D7218",
"J 	c #6F731A",
"K 	c #6A7017",
"L 	c #978C2D",
"M 	c #76771D",
"N 	c #6C7219",
"O 	c #6A7118",
"P 	c #AE9737",
"Q 	c #AC853D",
"R 	c #B29839",
"S 	c #75771D",
"T 	c #6C6F1A",
"U 	c #B29938",
"V 	c #797521",
"W 	c #BC9543",
"X 	c #7E7A22",
"Y 	c #6E721A",
"Z 	c #72741B",
"` 	c #787024",
" .	c #73751C",
"..	c #777A1F",
"+.	c #75781F",
"@.	c #6D7219",
"#.	c #727613",
"$.	c #75781C",
"%.	c #73771D",
"&.	c #6F751B",
"*.	c #7B7D22",
"=.	c #737622",
"-.	c #AAA79A",
";.	c #868855",
">.	c #6A7018",
",.	c #767A20",
"'.	c #717415",
").	c #A6A495",
"!.	c #A6977F",
"~.	c #7A7D4B",
"{.	c #7D7F23",
"].	c #797B21",
"^.	c #787B20",
"/.	c #74771C",
"(.	c #76791E",
"_.	c #72751A",
":.	c #757843",
"<.	c #747844",
"[.	c #717419",
"}.	c #6F741A",
"|.	c #73771C",
"1.	c #6C6721",
"2.	c #675040",
"3.	c #67503F",
"4.	c #664F3D",
"5.	c #695C32",
"6.	c #706D1C",
"7.	c #73731D",
"8.	c #767A15",
"9.	c #767A1F",
"0.	c #6C7218",
"a.	c #696119",
"b.	c #726558",
"c.	c #7A7468",
"d.	c #7A7368",
"e.	c #797267",
"f.	c #80776B",
"g.	c #7A6F62",
"h.	c #746753",
"i.	c #7B6B5E",
"j.	c #68602C",
"k.	c #6A7117",
"l.	c #797B20",
"m.	c #76781E",
"n.	c #6C6722",
"o.	c #624A36",
"p.	c #624934",
"q.	c #706356",
"r.	c #817C70",
"s.	c #878276",
"t.	c #878275",
"u.	c #878175",
"v.	c #918C83",
"w.	c #847B71",
"x.	c #69651B",
"y.	c #717412",
"z.	c #7B7E1A",
"A.	c #68601A",
"B.	c #695C4D",
"C.	c #726B5E",
"D.	c #746C5F",
"E.	c #797367",
"F.	c #7E796E",
"G.	c #837E71",
"H.	c #878376",
"I.	c #8F8A80",
"J.	c #7E776D",
"K.	c #787166",
"L.	c #6F6356",
"M.	c #685F1B",
"N.	c #8C9383",
"O.	c #949C94",
"P.	c #6E741E",
"Q.	c #73771E",
"R.	c #B59C39",
"S.	c #A59233",
"T.	c #6E6C20",
"U.	c #7F7669",
"V.	c #807C6F",
"W.	c #756F61",
"X.	c #777062",
"Y.	c #7A7266",
"Z.	c #898477",
"`.	c #888376",
" +	c #878377",
".+	c #888477",
"++	c #888377",
"@+	c #918D83",
"#+	c #827C71",
"$+	c #777166",
"%+	c #8D8577",
"&+	c #9D9485",
"*+	c #798055",
"=+	c #868F7A",
"-+	c #797E4A",
";+	c #9D8C30",
">+	c #807229",
",+	c #6F6C21",
"'+	c #80786B",
")+	c #858074",
"!+	c #858174",
"~+	c #949185",
"{+	c #8B877A",
"]+	c #898478",
"^+	c #888478",
"/+	c #898579",
"(+	c #898479",
"_+	c #908C82",
":+	c #8A867B",
"<+	c #837E72",
"[+	c #7C766A",
"}+	c #706457",
"|+	c #6A6831",
"1+	c #6D733C",
"2+	c #717417",
"3+	c #9D8B70",
"4+	c #808868",
"5+	c #70731A",
"6+	c #848074",
"7+	c #949085",
"8+	c #8B877B",
"9+	c #8A867A",
"0+	c #8A8579",
"a+	c #8A857A",
"b+	c #96938A",
"c+	c #837F72",
"d+	c #7F7A6E",
"e+	c #6D6A1B",
"f+	c #696E14",
"g+	c #6F7215",
"h+	c #6E6A1E",
"i+	c #7F766A",
"j+	c #848174",
"k+	c #848073",
"l+	c #8C887D",
"m+	c #868176",
"n+	c #837D71",
"o+	c #8B877C",
"p+	c #918E84",
"q+	c #928E83",
"r+	c #918E83",
"s+	c #928E84",
"t+	c #8F8B81",
"u+	c #837F73",
"v+	c #797468",
"w+	c #717513",
"x+	c #7C7D57",
"y+	c #7D7E5A",
"z+	c #727518",
"A+	c #73762C",
"B+	c #797A55",
"C+	c #797A54",
"D+	c #777847",
"E+	c #727519",
"F+	c #6E6A1D",
"G+	c #80776A",
"H+	c #838073",
"I+	c #7F7A6D",
"J+	c #827D71",
"K+	c #918D82",
"L+	c #928F85",
"M+	c #848075",
"N+	c #706458",
"O+	c #818161",
"P+	c #878679",
"Q+	c #878673",
"R+	c #717413",
"S+	c #858377",
"T+	c #807F72",
"U+	c #828175",
"V+	c #76783C",
"W+	c #858275",
"X+	c #949186",
"Y+	c #817D70",
"Z+	c #7E796D",
"`+	c #807B70",
" @	c #73685C",
".@	c #828264",
"+@	c #87867A",
"@@	c #898877",
"#@	c #86847A",
"$@	c #838277",
"%@	c #77783E",
"&@	c #6D6A1D",
"*@	c #969387",
"=@	c #766E63",
"-@	c #949087",
";@	c #949187",
">@	c #827E72",
",@	c #7F7B6F",
"'@	c #756B5F",
")@	c #6C691A",
"!@	c #888074",
"~@	c #908D81",
"{@	c #908D82",
"]@	c #938F84",
"^@	c #827D72",
"/@	c #6E665A",
"(@	c #665E50",
"_@	c #6C6459",
":@	c #6F695E",
"<@	c #746E63",
"[@	c #8D8980",
"}@	c #8E8B82",
"|@	c #888379",
"1@	c #746A5D",
"2@	c #6C691B",
"3@	c #837A6F",
"4@	c #969289",
"5@	c #98958D",
"6@	c #878379",
"7@	c #7A746A",
"8@	c #787369",
"9@	c #756F64",
"0@	c #61584A",
"a@	c #6C645A",
"b@	c #70685E",
"c@	c #726C62",
"d@	c #7D786F",
"e@	c #8F8B83",
"f@	c #847C74",
"g@	c #6C6918",
"h@	c #6C6919",
"i@	c #898178",
"j@	c #938F87",
"k@	c #7E7A71",
"l@	c #726C63",
"m@	c #6F685F",
"n@	c #6D665C",
"o@	c #6D655B",
"p@	c #6A6258",
"q@	c #706A60",
"r@	c #635A4D",
"s@	c #6E685E",
"t@	c #726B62",
"u@	c #716B62",
"v@	c #716C63",
"w@	c #797169",
"x@	c #6B6816",
"y@	c #74761C",
"z@	c #7E756B",
"A@	c #6E675E",
"B@	c #6C655B",
"C@	c #6B6359",
"D@	c #696258",
"E@	c #61584B",
"F@	c #645C52",
"G@	c #6D675D",
"H@	c #6E685F",
"I@	c #746B63",
"J@	c #6B6817",
"K@	c #7D746A",
"L@	c #6B655B",
"M@	c #5E5349",
"N@	c #625A50",
"O@	c #706960",
"P@	c #635B51",
"Q@	c #6B645B",
"R@	c #706A61",
"S@	c #6B655C",
"T@	c #6A645B",
"U@	c #6E6860",
"V@	c #706860",
"W@	c #838365",
"X@	c #86857B",
"Y@	c #77793E",
"Z@	c #756C63",
"`@	c #635A50",
" #	c #696259",
".#	c #686157",
"+#	c #69635B",
"@#	c #70685F",
"##	c #7A7C21",
"$#	c #6C6C36",
"%#	c #8A887E",
"&#	c #8C8A81",
"*#	c #8D8B81",
"=#	c #8D8B82",
"-#	c #6B6944",
";#	c #706D56",
">#	c #87857C",
",#	c #87857B",
"'#	c #85837A",
")#	c #838178",
"!#	c #7D7B6E",
"~#	c #707227",
"{#	c #6A635B",
"]#	c #6C675E",
"^#	c #6D675E",
"/#	c #6F675F",
"(#	c #6D6E2D",
"_#	c #6C6D2E",
":#	c #6D6D2E",
"<#	c #6F7032",
"[#	c #6D6E2F",
"}#	c #71741F",
"|#	c #6B6C2C",
"1#	c #6D6F27",
"2#	c #70675F",
"3#	c #69635A",
"4#	c #655D54",
"5#	c #5F564D",
"6#	c #665E55",
"7#	c #6A6813",
"8#	c #6E731A",
"9#	c #74772F",
"0#	c #7F7E6F",
"a#	c #807F71",
"b#	c #76783A",
"c#	c #78794B",
"d#	c #7D7C6E",
"e#	c #7C7B6D",
"f#	c #7A7A60",
"g#	c #737523",
"h#	c #6A6817",
"i#	c #686259",
"j#	c #6B655D",
"k#	c #6E6961",
"l#	c #60584E",
"m#	c #69625A",
"n#	c #6D675F",
"o#	c #7C7769",
"p#	c #848471",
"q#	c #74762A",
"r#	c #77784A",
"s#	c #7D7D5A",
"t#	c #818073",
"u#	c #72751F",
"v#	c #7F7F61",
"w#	c #807F73",
"x#	c #848372",
"y#	c #818075",
"z#	c #7C7B6E",
"A#	c #7F7D72",
"B#	c #75773C",
"C#	c #68625A",
"D#	c #584D44",
"E#	c #675F57",
"F#	c #6B665E",
"G#	c #665F57",
"H#	c #6E6861",
"I#	c #7C776A",
"J#	c #88877B",
"K#	c #7D7E54",
"L#	c #7F7E73",
"M#	c #828177",
"N#	c #727514",
"O#	c #74762C",
"P#	c #7F7F60",
"Q#	c #848371",
"R#	c #75783C",
"S#	c #584D43",
"T#	c #5A4E45",
"U#	c #686159",
"V#	c #6D655E",
"W#	c #828076",
"X#	c #74762B",
"Y#	c #818076",
"Z#	c #6E665E",
"`#	c #6D6860",
" $	c #68635B",
".$	c #6F6A62",
"+$	c #6A645C",
"@$	c #564538",
"#$	c #6A655D",
"$$	c #67625A",
"%$	c #6F6B63",
"&$	c #5D5449",
"*$	c #59493E",
"=$	c #6E665F",
"-$	c #6D6961",
";$	c #6C675F",
">$	c #635C53",
",$	c #5C5248",
"'$	c #5B4B3E",
")$	c #75773B",
"!$	c #70721A",
"~$	c #605233",
"{$	c #584033",
"]$	c #574033",
"^$	c #563D30",
"/$	c #563C30",
"($	c #584135",
"_$	c #513424",
":$	c #54392B",
"<$	c #8B8A7E",
"[$	c #74772D",
"}$	c #797957",
"|$	c #848377",
"1$	c #848378",
"2$	c #7C7B67",
"3$	c #727515",
"4$	c #7C7A6F",
"5$	c #807F74",
"6$	c #7E7D72",
"7$	c #747537",
"8$	c #848274",
"9$	c #8B8A7F",
"0$	c #8A897E",
"a$	c #797A4C",
"b$	c #747637",
"c$	c #7F7D73",
"d$	c #817F74",
"e$	c #7D7B6F",
"f$	c #707322",
"g$	c #6F6C59",
"h$	c #6F6C5B",
"i$	c #6F6C5C",
"j$	c #6F7129",
"k$	c #6D6E37",
"l$	c #6B6858",
"m$	c #6C6A4C",
"n$	c #71741E",
"o$	c #717233",
"p$	c #767362",
"q$	c #767361",
"r$	c #75735B",
"s$	c #717420",
"t$	c #71741D",
"u$	c #6E6C4E",
"v$	c #6E6B5A",
"w$	c #6E6B5B",
"x$	c #6F7039",
"y$	c #6D6A5A",
"z$	c #6C6959",
"A$	c #767844",
"B$	c #777845",
"C$	c #767841",
"D$	c #737626",
"E$	c #777946",
"F$	c #72751E",
"G$	c #777846",
"H$	c #767840",
"I$	c #757743",
"J$	c #757741",
"K$	c #7E7E6A",
"L$	c #838271",
"M$	c #828072",
"N$	c #767838",
"O$	c #82826E",
"P$	c #818072",
"Q$	c #797A49",
"R$	c #757736",
"S$	c #808071",
"T$	c #82816F",
"U$	c #7E7D64",
"V$	c #7A7B54",
"W$	c #747629",
"X$	c #7B7B5B",
"Y$	c #777948",
"Z$	c #74762E",
"`$	c #7D7E60",
" %	c #717514",
".%	c #868478",
"+%	c #818074",
"@%	c #7B7B50",
"#%	c #76783D",
"$%	c #828176",
"%%	c #85847A",
"&%	c #817F6E",
"*%	c #7C7B6F",
"=%	c #7C7C5D",
"-%	c #7F7E6D",
";%	c #737623",
">%	c #6E7338",
",%	c #6C711A",
"'%	c #838276",
")%	c #71743D",
"!%	c #74781F",
"~%	c #6D711A",
"{%	c #76783E",
"]%	c #7E7E5F",
"^%	c #858479",
"/%	c #86847B",
"(%	c #79776A",
"_%	c #676450",
":%	c #6C6C3F",
"<%	c #868578",
"[%	c #7B7C51",
"}%	c #77746A",
"|%	c #66653A",
"1%	c #6C6D2D",
"2%	c #73762A",
"3%	c #6D6D3D",
"4%	c #88867D",
"5%	c #8A887F",
"6%	c #6C6A4B",
"7%	c #726F5D",
"8%	c #807E73",
"9%	c #70722B",
"0%	c #6E6B54",
"a%	c #858379",
"b%	c #6F7034",
"c%	c #86847C",
"d%	c #7F7F46",
"e%	c #7A7C30",
"f%	c #72751D",
"g%	c #777A1E",
"h%	c #6A6A35",
"i%	c #696936",
"j%	c #696935",
"k%	c #6A6939",
"l%	c #6A6938",
"m%	c #6B6B34",
"n%	c #6D6D30",
"o%	c #707323",
"p%	c #696938",
"q%	c #686736",
"r%	c #6C6C38",
"s%	c #6F6F3A",
"t%	c #72771D",
"  . + @ # $ $ $ $ $ $ $ $ $ $ $ $ $ $ $ $ $ $ $ $ $ $ $ $ $ $ $ $ $ $ $ $ $ $ $ $ $ $ $ $ $ $ $ $ $ $ $ $ $ $ $ $ $ $ $ $ $ $ $ ",
"$ . % & * $ $ $ $ $ $ $ $ $ $ $ $ $ $ $ $ $ $ $ $ $ $ $ $ $ $ $ $ $ $ $ $ $ $ $ $ $ $ $ $ $ $ $ $ $ $ $ $ $ $ $ $ $ $ $ $ $ $ $ ",
"$ = - ; $ $ $ $ $ $ $ $ $ $ $ $ $ $ $ $ $ $ $ $ $ $ $ $ $ $ $ $ $ $ $ $ $ $ $ $ $ $ $ $ $ $ $ $ $ $ $ $ $ $ $ $ $ $ $ $ $ $ $ $ ",
"$ $ $ $ $ $ $ $ $ $ $ $ $ $ $ $ $ $ $ $ $ $ $ $ $ $ $ $ $ $ $ $ $ $ $ $ > , ' ) ! $ $ $ $ $ $ $ $ $ $ $ $ $ $ $ $ $ $ $ $ $ $ $ ",
"$ $ $ $ $ $ $ $ $ $ $ $ $ $ $ $ $ $ $ $ $ $ $ $ $ $ $ $ $ $ $ $ $ $ $ ! ~ { ] ^ / ! $ $ $ $ $ $ $ $ $ $ $ $ $ $ ( _ : $ : < $ $ ",
"$ $ $ $ $ $ $ $ $ $ $ $ $ $ $ $ $ $ $ $ $ $ $ $ $ $ $ $ $ $ $ $ $ $ $ $ [ } | 1 2 3 $ $ $ $ $ $ $ $ $ $ $ $ $ 4 5 6 7 8 9 $ 0 a ",
"$ $ $ $ $ $ $ $ $ $ $ $ $ $ $ $ $ $ $ $ $ $ $ $ $ $ $ $ $ $ $ $ $ $ $ $ $ 3 b c b $ $ $ $ $ $ $ $ $ $ $ $ $ $ $ d e f g h ) i j ",
"$ $ $ $ $ $ $ $ $ $ $ $ $ $ $ $ $ $ $ $ $ $ $ $ $ $ $ $ $ $ $ $ $ $ $ $ $ $ $ $ $ $ $ $ $ $ $ $ $ $ $ $ $ $ $ $ k l m n o p q r ",
"$ $ $ $ $ $ $ $ $ $ $ $ $ $ $ $ $ $ $ $ $ $ $ $ $ $ $ $ $ $ $ $ $ $ $ $ $ $ $ $ $ $ $ $ $ $ $ $ $ $ $ $ $ $ $ $ $ b s t u v $ $ ",
"$ $ $ $ $ $ $ $ $ $ $ $ $ $ $ $ $ $ $ $ $ $ $ $ $ $ $ $ $ $ $ $ $ $ $ $ $ $ $ $ $ $ $ $ $ $ $ $ $ $ $ $ $ $ $ $ $ $ w x y ) $ $ ",
"$ $ $ $ $ $ $ $ $ $ $ $ $ $ $ $ $ $ $ $ $ $ $ $ $ $ $ $ $ $ $ $ $ $ $ $ $ $ $ $ $ $ $ $ $ $ $ $ $ $ $ $ $ $ $ $ $ $ $ $ $ $ $ $ ",
"$ $ $ $ $ $ $ $ $ $ $ $ $ $ $ $ $ $ $ $ $ $ $ $ $ $ $ $ $ $ $ $ $ $ $ $ $ $ $ $ $ $ $ $ $ $ $ $ $ $ $ $ $ $ $ $ $ $ $ $ $ $ $ $ ",
"$ $ $ $ $ $ $ $ $ $ $ $ $ $ $ $ $ $ $ $ $ $ $ $ $ $ $ $ $ $ $ $ $ $ $ $ $ $ $ $ $ $ $ $ $ $ $ $ $ $ $ $ $ $ $ $ $ $ $ $ $ $ $ $ ",
"$ $ $ $ $ $ $ $ $ $ $ $ $ $ $ $ $ $ $ $ $ $ $ $ $ $ $ $ $ $ $ $ $ $ $ z $ $ $ $ $ $ $ $ $ $ $ $ $ $ $ $ $ $ $ $ $ $ $ $ $ $ $ $ ",
"$ $ $ $ $ $ $ : $ $ $ $ $ $ $ $ $ $ $ $ $ $ $ $ $ $ $ $ $ $ $ $ $ $ $ $ A B $ $ $ $ $ $ $ $ $ $ $ $ $ $ $ $ : C D $ $ $ $ $ $ $ ",
"$ $ $ $ $ $ E + $ $ $ $ $ $ $ $ $ $ $ $ $ $ $ $ $ $ $ $ $ $ $ $ $ $ $   F 4 $ $ $ $ $ $ $ $ $ $ $ $ $ $ $ $ ) G C : $ ( $ $ $ $ ",
"$ $ $ $ $ : H I $ $ $ $ $ $ $ $ $ $ $ $ $ $ $ $ $ $ $ $ $ $ $ $ $ $ : + ; J $ $ $ $ $ $ $ $ $ $ $ $ $ $ $ $ $ K & 4 L M $ $ $ $ ",
"$ $ $ $ $ 3 N $ $ $ $ $ $ $ $ $ $ $ $ $ $ $ $ $ $ $ $ $ $ $ $ $ $ $ 3 N $ $ $ $ $ $ $ $ $ $ $ $ $ $ $ $ $ $ $ ! O P Q R ) $ $ $ ",
"$ $ $ $ $ $ $ $ $ $ $ $ $ $ $ $ $ $ $ $ $ $ $ $ $ S $ $ $ $ $ $ $ $ $ $ $ $ $ $ $ $ $ $ $ $ $ $ $ $ $ $ $ $ $ $ $ T U V W X $ $ ",
"$ $ $ $ $ $ $ $ $ $ $ $ $ $ $ $ $ $ $ $ $ $ $ $ ( ( $ C A $ $ $ $ $ $ $ $ $ $ $ $ $ $ $ $ $ $ $ $ $ $ $ $ $ $ $ $ $ Y Z `  .$ $ ",
"$ $ $ $ $ $ $ $ $ $ $ $ $ $ $ $ $ $ $ $ $ $ ..D +.@.& & $ $ $ $ $ $ $ $ $ $ $ $ $ $ $ $ $ $ $ $ #.$.$ $ $ $ $ $ $ $ $ $ $ $ $ $ ",
"$ $ $ $ $ $ $ $ $ $ $ $ $ $ $ $ $ $ $ $ $ $ K & : %.. &.*.$ $ $ $ $ $ $ $ $ $ $ $ $ $ $ $ $ $ =.-.;.$ $ $ $ $ $ $ $ $ $ $ $ $ $ ",
"$ $ $ $ $ $ $ $ $ $ $ $ $ $ $ $ $ $ $ $ $ $ $ = b * >.,.@.$ $ $ $ $ $ $ $ $ $ $ $ $ $ $ $ $ '.).!.~.$ $ $ $ $ $ $ $ $ $ $ ' {.].",
"$ $ $ $ $ $ $ $ $ $ $ $ $ $ $ $ $ $ $ {.^.$ $ $ $ 3 ) $ $ $ $ $ $ $ A ..$ $ /.(.$ $ $ $ $ $ _.:.<.[.$ $ $ $ $ $ $ $ $ $ $ $ }.. ",
"$ $ $ $ $ $ $ $ $ $ $ $ $ $ $ $ $ $ $ |.& ( $ $ $ $ $ 1.2.3.3.4.5.6.7.8.%.. 9.$ $ $ $ $ $ $ $ $ $ $ $ $ $ $ $ $ $ $ $ $ $ $ $ 0.",
"$ $ $ $ $ $ $ $ $ $ $ $ $ $ $ $ $ $ $ $ N @.$ $ $ $ a.b.c.d.e.d.f.g.h.i.j.& k.l.A $ S m.$ $ $ $ $ $ $ $ $ $ $ $ $ $ $ $ $ $ $ $ ",
"$ $ $ $ $ $ $ $ $ $ $ $ $ $ $ $ $ $ $ $ $ $ $ n.o.p.q.d.c.d.r.s.t.u.s.v.w.x.$ y.z.%.5 $ $ $ $ $ $ $ $ $ $ $ D ..$ ! $ 4 $ $ $ $ ",
"$ $ $ $ $ $ $ $ $ $ $ $ $ $ $ $ $ $ $ $ $ $ A.B.C.D.D.E.F.G.H.s.s.s.I.J.K.L.M.N.O.P.0.$ $ $ $ $ $ $ $ $ $ $ $ A Q.R.S.: $ $ $ $ ",
"$ $ $ $ $ $ $ $ $ $ $ $ $ $ $ $ $ $ $ $ $ T.U.V.W.X.Y.Z.`. +.+++H..+@+#+K.$+L.%+&+*+=+-+$ $ $ $ $ $ $ $ $ $ $ K & ;+>+$ $ $ $ $ ",
"$ $ $ $ $ $ $ $ $ $ $ $ $ $ $ $ $ $ $ $ $ ,+'+)+!+!+~+{+]+^+/+(+^+_+:+<+[+$+}+|+1+2+3+4+$ $ $ $ $ $ $ $ $ $ $ b O 5+b $ $ $ $ $ ",
"$ $ $ $ $ $ $ $ $ $ $ $ $ $ $ $ $ $ $ $ $ ,+f.6+!+!+7+8+9+0+a+/+/+b+c+<+d+$+}+e+$ $ f+g+$ $ $ $ $ $ $ $ $ $ $ $ $ $ $ $ $ $ $ $ ",
"$ $ $ $ $ $ $ $ $ $ $ $ $ $ $ $ $ $ $ $ $ h+i+j+k+l+m+n+o+p+q+r+s+t+u+<+u+v+}+e+$ $ $ $ $ $ $ $ $ $ $ $ $ $ $ $ $ $ $ $ $ $ $ $ ",
"w+x+y+y+y+y+y+y+y+z+$ A+B+C+C+C+C+C+C+D+E+F+G+H+!+_+I+J+K+s+s+s+L+M+c+<+d+r.N+e+$ $ $ $ $ $ $ $ $ $ $ $ $ $ $ $ $ $ $ $ $ $ $ $ ",
"O+P+P+P+P+P+P+P+P+Q+R+S+T+T+T+T+T+T+T+U+V+F+G+W+X+H.s.@+@+p+s+@+@+)+<+Y+Z+`+ @e+$ $ $ $ $ $ $ $ $ $ $ $ $ $ $ $ $ $ $ $ $ $ $ $ ",
".@+@P+P+P+P+P+P+P+@@y.#@T+T+T+T+T+T+T+$@%@&@i+*@r+K+K+K+K+K.=@-@b+;@>@,@Z+Z+'@e+$ $ $ $ $ $ $ $ $ $ $ $ $ $ $ $ $ $ $ $ $ $ $ $ ",
".@+@P+P+P+P+P+P+P+@@y.#@T+T+T+T+T+T+T+$@%@)@!@~@{@{@]@;@^@/@(@_@:@<@[@}@|@,@1@2@$ $ $ $ $ $ $ $ $ $ $ $ $ $ $ $ $ $ $ $ $ $ $ $ ",
".@+@P+P+P+P+P+P+P+@@y.#@T+T+T+T+T+T+T+$@%@2@3@_+4@5@6@7@8@9@0@a@b@c@c@c@d@e@f@g@$ $ $ $ $ $ $ $ $ $ $ $ $ $ $ $ $ $ $ $ $ $ $ $ ",
".@+@P+P+P+P+P+P+P+@@y.#@T+T+T+T+T+T+T+$@%@h@i@j@k@l@m@n@o@p@q@r@s@c@c@t@u@v@w@x@$ $ $ $ $ $ $ $ $ $ $ $ $ $ $ $ $ $ $ $ $ $ $ y@",
".@+@P+P+P+P+P+P+P+@@y.#@T+T+T+T+T+T+T+$@%@x@z@u@c@A@n@B@B@C@D@E@F@G@u@A@H@u@I@J@$ $ $ $ $ $ $ $ $ $ $ $ $ $ $ $ $ $ $ $ $ $ $ z ",
".@+@P+P+P+P+P+P+P+@@y.#@T+T+T+T+T+T+T+$@%@x@K@u@u@L@L@L@L@M@N@O@P@Q@R@S@T@U@V@J@$ $ $ $ $ $ $ $ $ $ $ $ $ $ $ $ $ $ $ $ $ $ $ $ ",
"W@P+P+P+P+P+P+P+P+@@y.X@T+T+T+T+T+T+T+$@Y@J@Z@H@u@Q@Q@Q@Q@D@`@ #.#T@T@T@T@+#@#J@$ $ $ $ $ $ $ $ $ $ $ $ $ $ . ##$ $ $ $ $ $ $ $ ",
"$#%#&#&#&#&#*#*#=#-#E+;#>#,#,#'#)#)#)#!#~#J@@#{#T@T@T@T@T@T@]#S@^#T@T@{#+#+#/#J@$ $ $ $ $ $ $ $ $ $ $ $ $ $ m.C ( $ $ $ $ $ $ $ ",
"_.(#_#_#_#:#<#<#[#_.$ }#_#_#_#|#|#|#|#1#$ J@2#3#+#{#{#{#T@T@4#5#6#{#+#+#3#3#/#7#w $ $ E+z+z+z+z+z+z+z+_.$ $ ) 8#h w w w w w $ $ ",
"9#0#a#a#a#a#a#a#a#b#_.c#d#e#e#e#e#e#e#f#g#h#/#3#3#3#+#+#+#i#j#k#l#+#+#3#m#n#/#o#p#q#g#f#e#e#e#e#e#e#e#r#_.$ $ $ s#t#a#a#a#0#9#u#",
"v#w#T+T+T+T+T+T+T+x#w+y#z#z#z#z#z#z#z#A#B#h#/#C#m#3#3#+#+#D#E#F#G#+#m#m#+#H#/#I#J#K#V+L#z#z#z#z#z#z#z#M#z+z+N#v#U+T+T+T+T+w#v#O#",
"P#w#T+T+T+T+T+T+T+Q#w+y#z#z#z#z#z#z#z#L#R#h#/#+#C#C#C#C#3#S#T#U#+#C#C#C#k#k#V#I#J#K#V+L#z#z#z#z#z#z#z#W#w+Q#a#T+T+T+T+T+T+w#P#X#",
"P#w#T+T+T+T+T+T+T+Q#w+Y#z#z#z#z#z#z#z#L#R#h#Z#`#C#C#C#C#C#k#k# $C#C#C#C#.$+$@$I#J#K#V+L#z#z#z#z#z#z#z#W#w+Q#T+T+T+T+T+T+T+w#P#X#",
"P#w#T+T+T+T+T+T+T+Q#w+W#z#z#z#z#z#z#z#L#R#h#Z#`#+#C#C#C#C#C#C#C##$`#F#$$%$&$*$I#J#K#V+L#z#z#z#z#z#z#z#W#w+Q#T+T+T+T+T+T+T+w#P#X#",
"P#w#T+T+T+T+T+T+T+Q#w+W#z#z#z#z#z#z#z#L#R#h#=$k#-$-$k# $C#C#C# $k#k#;$#$>$,$'$V.J#K#V+L#z#z#z#z#z#z#z#W#w+Q#T+T+T+T+T+T+T+w#P#X#",
"P#w#T+T+T+T+T+T+T+Q#w+W#z#z#z#z#z#z#z#A#)$!$~${$]$]${$^$/$/$/$^${$]$]$($_$:$V.P+J#K#V+L#z#z#z#z#z#z#z#W#w+Q#T+T+T+T+T+T+T+w#P#X#",
"P#w#T+T+T+T+T+T+T+Q#w+W#z#z#z#z#z#z#z#A#)$$ $ $ $ $ $ $ $ $ $ R+<$P+P+P+P+P+P+P+J#K#V+L#z#z#z#z#z#z#z#W#w+Q#T+T+T+T+T+T+T+w#P#[$",
"}$|$1$1$1$1$1$1$1$2$3$4$5$5$5$5$5$5$5$6$7$$ $ $ $ $ $ $ $ $ $ 3$8$9$<$<$<$<$<$<$0$a$b$c$5$5$5$5$5$5$d$e$3$2$1$1$1$1$1$1$1$|$}$$ ",
"f$g$h$h$h$h$h$h$i$j$$ k$l$l$l$l$l$l$l$m$n$$ $ $ $ $ $ $ $ $ $ $ o$p$q$q$q$q$q$q$r$s$t$u$l$l$l$l$v$v$w$x$$ j$i$y$z$z$y$h$h$g$f$$ ",
"w A$B$B$B$C$E+_._.$ $ D$E$B$B$B$B$B$B$)$_.$ $ $ $ $ $ $ $ $ $ $ F$G$B$B$B$B$B$B$H$z+_.)$B$B$B$B$B$B$G$D$$ E+I$I$I$I$I$I$I$J$w $ ",
"x+T+T+T+T+K$z+$ $ $ E+L$T+T+T+T+T+T+T+M$N$$ $ < : $ $ $ $ $ $ 3$O$T+T+T+T+T+T+T+P$Q$R$S$T+T+T+T+T+T+T+T$3$U$z#z#z#z#z#z#z#z#V$W$",
"P#w#T+T+T+T+X$Y$Z$$ z+#@T+T+T+T+T+T+T+`$E : . ,.b $ $ $ $ $ $  %.%T+T+T+T+T+T+T++%@%#%$%T+T+T+T+T+T+T+%%w+&%z#z#z#z#z#z#z#*%=%[$",
"P#w#T+T+T+T+T+T+-%;%z+#@T+T+T+T+T+T+T+t#>%& . ,%$ $ $ $ $ $ $  %.%T+T+T+T+T+T+T++%@%#%'%T+T+T+T+T+T+T+%%w+L$z#z#z#z#z#z#z#*%=%[$",
"P#w#T+T+T+T+T+T+T+x#w+#@T+T+T+T+T+T+T+$@)%!%~%$ $ $ $ $ $ $ $  %.%T+T+T+T+T+T+T++%@%{%$@T+T+T+T+T+T+T+%%w+Q#z#z#z#z#z#z#z#*%=%[$",
"P#w#T+T+T+T+T+T+T+Q#w+#@T+T+T+T+T+T+T+$@%@b $ $ $ $ $ $ $ $ $  %.%T+T+T+T+T+T+T++%@%%@$@T+T+T+T+T+T+T+%%w+Q#z#z#z#z#z#z#z#*%=%[$",
"P#w#T+T+T+T+T+T+T+Q#w+#@T+T+T+T+T+T+T+$@%@$ $ $ $ $ $ $ $ $ $  %.%T+T+T+T+T+T+T++%@%%@$@T+T+T+T+T+T+T+%%w+Q#z#z#z#z#z#z#z#W#]%[$",
"P#w#T+T+T+T+T+T+T+Q#w+#@T+T+T+T+T+T+T+$@%@$ $ $ $ $ $ $ $ $ $  %.%T+T+T+T+T+T+T++%@%%@$@T+T+T+T+T+T+T+^%w+Q#z#z#z#z#5$/%(%_%:%[$",
"v#T+T+T+T+T+T+T+a#x#w+X@a#T+T+T+T+T+T+$@Y@$ $ $ $ $ $ $ $ $ $  %<%a#T+T+T+T+T+T++%[%Y@$@T+T+T+T+T+T+a##@w+x#e#z#z#*%}%|%1%E+_.2%",
"3%4%5%5%5%5%5%5%5%6%z+7%5%5%5%5%5%5%5%8%9%$ $ $ $ $ $ $ $ $ $ E+0%5%5%5%5%5%5%5%a%b%9%8%5%5%5%5%5%5%5%7%z+6%/%/%c%d%e%f%$ : E B ",
"g%h%i%i%i%i%i%i%i%_.$ f$i%j%j%j%j%j%j%_#_.$ $ $ $ $ $ $ $ $ $ $ t$k%l%l%l%l%l%l%m%_._.n%l%l%l%l%l%l%k%o%$ _.p%q%r%s%..t%( ( $ $ "};
