/* XPM */
static char * floor_xpm[] = {
"64 64 194 2",
"  	c #72751B",
". 	c #73761C",
"+ 	c #7E8125",
"@ 	c #74771C",
"# 	c #777A20",
"$ 	c #787B21",
"% 	c #797C21",
"& 	c #6F741C",
"* 	c #74781F",
"= 	c #757920",
"- 	c #6E721A",
"; 	c #6E731C",
"> 	c #75781F",
", 	c #6C721B",
"' 	c #71741B",
") 	c #71751D",
"! 	c #74771D",
"~ 	c #75781D",
"{ 	c #72751C",
"] 	c #787B20",
"^ 	c #727518",
"/ 	c #727517",
"( 	c #75781E",
"_ 	c #70751E",
": 	c #73771F",
"< 	c #72751A",
"[ 	c #878F7A",
"} 	c #8C9587",
"| 	c #717411",
"1 	c #6B7019",
"2 	c #75791F",
"3 	c #777A21",
"4 	c #72761C",
"5 	c #6C711B",
"6 	c #76791F",
"7 	c #7A7D48",
"8 	c #868754",
"9 	c #88917F",
"0 	c #A09280",
"a 	c #82896B",
"b 	c #6A701A",
"c 	c #6C711A",
"d 	c #6F741B",
"e 	c #7F8143",
"f 	c #A79881",
"g 	c #A79479",
"h 	c #85865C",
"i 	c #767F62",
"j 	c #73783D",
"k 	c #70731A",
"l 	c #73771E",
"m 	c #6B7018",
"n 	c #6E7314",
"o 	c #686E17",
"p 	c #909078",
"q 	c #9A9A88",
"r 	c #7B7D4A",
"s 	c #AEA597",
"t 	c #969375",
"u 	c #72751D",
"v 	c #777B3F",
"w 	c #949E9B",
"x 	c #74772A",
"y 	c #6E720D",
"z 	c #A2A192",
"A 	c #8D8E74",
"B 	c #908E75",
"C 	c #777623",
"D 	c #928E7E",
"E 	c #737728",
"F 	c #9F9E8B",
"G 	c #A7957B",
"H 	c #85875D",
"I 	c #676C15",
"J 	c #6F7219",
"K 	c #7B7E23",
"L 	c #6E7216",
"M 	c #787B47",
"N 	c #797C52",
"O 	c #707416",
"P 	c #72761E",
"Q 	c #6D7119",
"R 	c #7C7F24",
"S 	c #767A21",
"T 	c #6A6F19",
"U 	c #6C7119",
"V 	c #767920",
"W 	c #70741D",
"X 	c #7A7D23",
"Y 	c #797B20",
"Z 	c #73761B",
"` 	c #76781E",
" .	c #7B7E22",
"..	c #6D7219",
"+.	c #6E7219",
"@.	c #6D731A",
"#.	c #6E731A",
"$.	c #70751C",
"%.	c #6C7118",
"&.	c #6B7118",
"*.	c #72761D",
"=.	c #78771F",
"-.	c #A48C36",
";.	c #73751B",
">.	c #71741A",
",.	c #70741A",
"'.	c #AE8E3C",
").	c #A77E3D",
"!.	c #AB8E3A",
"~.	c #AA9335",
"{.	c #B99E3B",
"].	c #70721C",
"^.	c #927F2E",
"/.	c #7F7A22",
"(.	c #C19F40",
"_.	c #91842B",
":.	c #71751B",
"<.	c #6B6E1A",
"[.	c #7E8023",
"}.	c #797B21",
"|.	c #6C7218",
"1.	c #6E7319",
"2.	c #787A1F",
"3.	c #7C7E22",
"4.	c #787B1F",
"5.	c #7C7F22",
"6.	c #7C7E23",
"7.	c #6D7218",
"8.	c #6F731A",
"9.	c #6A7017",
"0.	c #6C7219",
"a.	c #75771D",
"b.	c #777A1F",
"c.	c #727613",
"d.	c #75781C",
"e.	c #73771D",
"f.	c #6F751B",
"g.	c #7B7D22",
"h.	c #737622",
"i.	c #AAA79A",
"j.	c #868855",
"k.	c #6A7018",
"l.	c #767A20",
"m.	c #717415",
"n.	c #A6A495",
"o.	c #A6977F",
"p.	c #7A7D4B",
"q.	c #7D7F23",
"r.	c #76791E",
"s.	c #757843",
"t.	c #747844",
"u.	c #717419",
"v.	c #777B1F",
"w.	c #73771C",
"x.	c #777A1E",
"y.	c #767A15",
"z.	c #767A1F",
"A.	c #7A7C22",
"B.	c #71761C",
"C.	c #797C20",
"D.	c #828446",
"E.	c #ACA99E",
"F.	c #727737",
"G.	c #6A7117",
"H.	c #71761D",
"I.	c #71751C",
"J.	c #6E7210",
"K.	c #999683",
"L.	c #AB977E",
"M.	c #97957F",
"N.	c #6F7413",
"O.	c #717412",
"P.	c #7B7E1A",
"Q.	c #7A7D22",
"R.	c #707421",
"S.	c #727645",
"T.	c #70741E",
"U.	c #72751E",
"V.	c #8C9383",
"W.	c #949C94",
"X.	c #6E741E",
"Y.	c #757A3C",
"Z.	c #989486",
"`.	c #9D9485",
" +	c #798055",
".+	c #868F7A",
"++	c #797E4A",
"@+	c #6E7336",
"#+	c #6D733C",
"$+	c #717417",
"%+	c #9D8B70",
"&+	c #808868",
"*+	c #696E14",
"=+	c #6F7215",
"                                                                                                                                ",
"                                                                                                                                ",
"                                                                                                                                ",
"                                                                                                                                ",
"                                                                                                                                ",
"                      . + .     @                                                                                               ",
"                        # $ . # %                                                                                               ",
"                    $ $ & * # = -                                                                                               ",
"                      ; % - > , '                                                                                               ",
"                      ' )                     . !                                     ! ~ { ! ]   ^ /                           ",
"                                        % (   % _                                     ! + # ' : < [ } |                         ",
"                                        1 2 ( 3 4                                     ! 5 # 6 7 8 9 0 a                         ",
"                                          b $ c '                                     d 3 ; e f g h i j                         ",
"                                          k l                                           m n o p q r s t u                       ",
"                                                                                        v w x y z A s B u                       ",
"                                                                    ! 6                 C D E F G H I J                         ",
"                                                                  ! $ K                   L < M N O                             ",
"                                                                  4 P Q                                                         ",
"                                                                  ' k                                                           ",
"                                                                                                                                ",
"                                                                                                                                ",
"                                                                                                                                ",
"                                                                                                                                ",
"                                                                                                                                ",
"                                                                                                                                ",
"                                                                                                                                ",
"                                                              ! R     # R                                                       ",
"                                                                K $ ( S                                                         ",
"                                                                T U V W '                               $ 6     # .             ",
"                                                                    U -                                 4 X ! # #               ",
"                Y . Z .                                                                                 k P 6 1 1               ",
"          Z ` . *    . ..                                                                                 - ..                  ",
"            ] # +.#  .@.Z                                                                                                       ",
"            #.#   # $.$ 4                                                                                                       ",
"              %.  &.*.%.                                                                                                        ",
"                                                                                        =.-.;.>.,.                              ",
"                                                                                      ,.'.).!.~.{.,.                            ",
"                                                                                        ].^./.(._.:.                          ( ",
"  ! .                                                                                     :.' <.'                               ",
". [.}.                                                                                                                          ",
"  |.V                                                                                                                           ",
"    1.                                                                                                                          ",
"                                                                                                                                ",
"                                                                                                                                ",
"                                                                                                                                ",
"                                                                                      2.                                        ",
"                              .                                                         3.{                                 . % ",
"                            4. .                                                      +.3 (                                 >.5.",
"                          . 6.7.                                                    .  .%.8.                                  9.",
"                          :.0.                                                      :.0.                                      ,.",
"                                                                  a.                                                            ",
"                                                                6 6   % 3.                                                      ",
"                                                            b.! > ..$ $                                         c.d.            ",
"                                                            9.$ . e.# f.g.                                    h.i.j.            ",
"                                                              &.' 4 k.l...                                  m.n.o.p.            ",
"   .4.    # !                                         q.]         :.>.              3.b.    @ r.            < s.t.u.            ",
"` b.] l Y v.                                          w.$ 6                       r.x.y.e.# z.                                  ",
"4.A.B.9.$ &.                                            0...                      C.D.E.F.$ G.Y 3.  a.`                         ",
"8.H.6   I.                                                                        J.K.L.M.N.  O.P.e.Q.                      ! b.",
"  '                                                                                 R.S.T.  U.V.W.X.|.                        3.",
"                                                                                            Y.Z.`. +.+++                      9.",
"                                                                                              @+#+$+%+&+                      ' ",
"                                                                                                    *+=+                        ",
"                                                                                                                                "};
