/* XPM */
static char * gus_xpm[] = {
"64 64 15 1",
" 	c None",
".	c #485262",
"+	c #5E718E",
"@	c #88A3BC",
"#	c #FFFFFF",
"$	c #000000",
"%	c #291F1D",
"&	c #B47538",
"*	c #A0ACD2",
"=	c #673931",
"-	c #D6A851",
";	c #8F9EBF",
">	c #456A80",
",	c #E5AA75",
"'	c #3B5171",
"                                                                ",
"                                                                ",
"                                                                ",
"                                                                ",
"                                                                ",
"                                                                ",
"                                                                ",
"                                                                ",
"                                                                ",
"                                                                ",
"                                                                ",
"                                                                ",
"                                                                ",
"                                                                ",
"                                                                ",
"                                                                ",
"                                                                ",
"                                                                ",
"                                                                ",
"                                                                ",
"                                                                ",
"                                                                ",
"                                                                ",
"                                                                ",
"                                                                ",
"                     .+@@@+.  #                                 ",
"                    .+@@@@@+.##                                 ",
"                    .+@@@@@+.##                                 ",
"                    .+@$$$$$.##                                 ",
"                    .@@@@$@@.##                                 ",
"                    .@@@@$@+.##                                 ",
"                    .+@@@$@+.##                                 ",
"                    .+@@@@@@.##                                 ",
"                    +@%%%%%%%##                                 ",
"                   +&&&******#=&                                ",
"                  +&---&***@&==&                                ",
"                  @&---&;;;>>,,,                                ",
"                   &---&';;>>,&&                                ",
"                    &&&' ''  &&                                 ",
"                                                                ",
"                                                                ",
"                                                                ",
"                                                                ",
"                                                                ",
"                                                                ",
"                                                                ",
"                                                                ",
"                                                                ",
"                                                                ",
"                                                                ",
"                                                                ",
"                                                                ",
"                                                                ",
"                                                                ",
"                                                                ",
"                                                                ",
"                                                                ",
"                                                                ",
"                                                                ",
"                                                                ",
"                                                                ",
"                                                                ",
"                                                                ",
"                                                                "};
