/* XPM */
static char * item_xpm[] = {
"64 64 560 2",
"  	c #72751B",
". 	c #73761C",
"+ 	c #7E8125",
"@ 	c #74771C",
"# 	c #777A20",
"$ 	c #787B21",
"% 	c #797C21",
"& 	c #6F741C",
"* 	c #74781F",
"= 	c #757920",
"- 	c #6E721A",
"; 	c #6E731C",
"> 	c #75781F",
", 	c #6C721B",
"' 	c #71741B",
") 	c #71751D",
"! 	c #74771D",
"~ 	c #75781D",
"{ 	c #72751C",
"] 	c #787B20",
"^ 	c #727518",
"/ 	c #727517",
"( 	c #75781E",
"_ 	c #70751E",
": 	c #73771F",
"< 	c #72751A",
"[ 	c #878F7A",
"} 	c #8C9587",
"| 	c #717411",
"1 	c #6B7019",
"2 	c #75791F",
"3 	c #777A21",
"4 	c #72761C",
"5 	c #6C711B",
"6 	c #76791F",
"7 	c #7A7D48",
"8 	c #868754",
"9 	c #88917F",
"0 	c #A09280",
"a 	c #82896B",
"b 	c #6A701A",
"c 	c #6C711A",
"d 	c #6F741B",
"e 	c #7F8143",
"f 	c #A79881",
"g 	c #A79479",
"h 	c #85865C",
"i 	c #767F62",
"j 	c #73783D",
"k 	c #70731A",
"l 	c #73771E",
"m 	c #6B7018",
"n 	c #6E7314",
"o 	c #686E17",
"p 	c #909078",
"q 	c #9A9A88",
"r 	c #7B7D4A",
"s 	c #AEA597",
"t 	c #969375",
"u 	c #72751D",
"v 	c #777B3F",
"w 	c #949E9B",
"x 	c #74772A",
"y 	c #6E720D",
"z 	c #A2A192",
"A 	c #8D8E74",
"B 	c #908E75",
"C 	c #777623",
"D 	c #928E7E",
"E 	c #737728",
"F 	c #9F9E8B",
"G 	c #A7957B",
"H 	c #86875D",
"I 	c #686C16",
"J 	c #70721A",
"K 	c #7B7E23",
"L 	c #6E7216",
"M 	c #7B7C48",
"N 	c #827F53",
"O 	c #817A25",
"P 	c #837A27",
"Q 	c #7D7823",
"R 	c #74761E",
"S 	c #72761E",
"T 	c #6D7119",
"U 	c #787722",
"V 	c #857B2A",
"W 	c #968134",
"X 	c #A48639",
"Y 	c #A38538",
"Z 	c #948030",
"` 	c #7E7924",
" .	c #75761E",
"..	c #73751C",
"+.	c #7D7927",
"@.	c #8E7F32",
"#.	c #A5863C",
"$.	c #BB8E43",
"%.	c #C99348",
"&.	c #C59046",
"*.	c #AF883D",
"=.	c #8E7D2E",
"-.	c #797721",
";.	c #74761D",
">.	c #787720",
",.	c #837A29",
"'.	c #968237",
").	c #B48C45",
"!.	c #CE954D",
"~.	c #DD9A4E",
"{.	c #E19A4D",
"].	c #DA964B",
"^.	c #C48E44",
"/.	c #A18237",
"(.	c #807925",
"_.	c #7A7823",
":.	c #8C7D2D",
"<.	c #A68539",
"[.	c #BF8F46",
"}.	c #D4974E",
"|.	c #E09B50",
"1.	c #E3994F",
"2.	c #E1984C",
"3.	c #DA954B",
"4.	c #C79047",
"5.	c #A7863C",
"6.	c #73751B",
"7.	c #77761E",
"8.	c #827A26",
"9.	c #968031",
"0.	c #B0893C",
"a.	c #C79145",
"b.	c #D9974D",
"c.	c #E09A4F",
"d.	c #DF984F",
"e.	c #DC954E",
"f.	c #D6944C",
"g.	c #CC9149",
"h.	c #B88C42",
"i.	c #9B8337",
"j.	c #7E7925",
"k.	c #747727",
"l.	c #7B7C37",
"m.	c #898242",
"n.	c #9F8944",
"o.	c #BB8F46",
"p.	c #D29548",
"q.	c #DE994C",
"r.	c #DF994E",
"s.	c #DA954E",
"t.	c #D4934E",
"u.	c #CF914E",
"v.	c #C5904B",
"w.	c #B38C43",
"x.	c #9A8338",
"y.	c #827A29",
"z.	c #76761F",
"A.	c #73761F",
"B.	c #80824B",
"C.	c #95946B",
"D.	c #AEA37D",
"E.	c #C4A675",
"F.	c #D5A060",
"G.	c #DD9950",
"H.	c #DD974F",
"I.	c #D99450",
"J.	c #D09250",
"K.	c #C58F4D",
"L.	c #B78C47",
"M.	c #A6873F",
"N.	c #938134",
"O.	c #817A28",
"P.	c #7A7D3B",
"Q.	c #8A8C61",
"R.	c #A1A389",
"S.	c #B8B6A4",
"T.	c #CBC2B0",
"U.	c #D8BFA3",
"V.	c #DCB081",
"W.	c #DC9F60",
"X.	c #D69653",
"Y.	c #CD914E",
"Z.	c #BF8D4A",
"`.	c #AD8842",
" +	c #9A8239",
".+	c #897D2F",
"++	c #7C7925",
"@+	c #777A32",
"#+	c #828450",
"$+	c #939572",
"%+	c #ABAD98",
"&+	c #C1C2B7",
"*+	c #D1CFC9",
"=+	c #D9D4CD",
"-+	c #DBCDBF",
";+	c #D7B99B",
">+	c #D0A470",
",+	c #C79354",
"'+	c #B98C47",
")+	c #A5853C",
"!+	c #907F32",
"~+	c #817A29",
"{+	c #777721",
"]+	c #757821",
"^+	c #7E812D",
"/+	c #A2A387",
"(+	c #B8B9A7",
"_+	c #C9CAC2",
":+	c #D5D5D2",
"<+	c #D9D9D8",
"[+	c #D8D6D4",
"}+	c #D3CDC7",
"|+	c #C9BAA4",
"1+	c #BCA177",
"2+	c #AF8D4F",
"3+	c #9C8339",
"4+	c #887C2B",
"5+	c #767930",
"6+	c #878A4E",
"7+	c #959770",
"8+	c #ACAD97",
"9+	c #C2C3B7",
"0+	c #D1D1CC",
"a+	c #D8D8D6",
"b+	c #D4D4D3",
"c+	c #CCCCC8",
"d+	c #C3C0B7",
"e+	c #B2AC95",
"f+	c #9F956B",
"g+	c #8D823F",
"h+	c #7E7928",
"i+	c #7C7E40",
"j+	c #888B5E",
"k+	c #999C82",
"l+	c #B4B5A6",
"m+	c #CACAC2",
"n+	c #D6D6D3",
"o+	c #DAD9D8",
"p+	c #D7D7D6",
"q+	c #D1D1CE",
"r+	c #C8C8C2",
"s+	c #BBBAAF",
"t+	c #A8A893",
"u+	c #93926D",
"v+	c #838247",
"w+	c #79792B",
"x+	c #73761E",
"y+	c #76792D",
"z+	c #80834C",
"A+	c #949673",
"B+	c #AAAB96",
"C+	c #BFC0B4",
"D+	c #CFD0CA",
"E+	c #DAD9D9",
"F+	c #D6D5D5",
"G+	c #CCCCC9",
"H+	c #C1C0B9",
"I+	c #B1B1A2",
"J+	c #9FA086",
"K+	c #8B8D62",
"L+	c #7A7D3C",
"M+	c #7A7D23",
"N+	c #797B20",
"O+	c #73761B",
"P+	c #87895A",
"Q+	c #9B9C7F",
"R+	c #B5B6A6",
"S+	c #CBCBC3",
"T+	c #D8D8D5",
"U+	c #DBDBDA",
"V+	c #D7D6D6",
"W+	c #D1D0CE",
"X+	c #C9C8C4",
"Y+	c #BCBCB2",
"Z+	c #A9AA96",
"`+	c #949573",
" @	c #777A31",
".@	c #737623",
"+@	c #76781E",
"@@	c #7B7E22",
"#@	c #7E8147",
"$@	c #90926C",
"%@	c #A9AA94",
"&@	c #C1C2B6",
"*@	c #D2D2CD",
"=@	c #D9D9D7",
"-@	c #DADAD9",
";@	c #D5D5D4",
">@	c #CFCFCC",
",@	c #C4C5BE",
"'@	c #B3B3A5",
")@	c #9E9E84",
"!@	c #8A8B61",
"~@	c #7C7E41",
"{@	c #76782C",
"]@	c #6D7219",
"^@	c #6E7219",
"/@	c #6D731A",
"(@	c #888A5C",
"_@	c #9EA084",
":@	c #B5B7A7",
"<@	c #C9CAC1",
"[@	c #D6D6D2",
"}@	c #D5D4D3",
"|@	c #C9C9C5",
"1@	c #BABBB0",
"2@	c #969777",
"3@	c #848655",
"4@	c #787B36",
"5@	c #6E731A",
"6@	c #70751C",
"7@	c #75782A",
"8@	c #7F8148",
"9@	c #91926D",
"0@	c #D0D1CB",
"a@	c #DADADA",
"b@	c #C5C4BE",
"c@	c #B3B4A6",
"d@	c #9FA087",
"e@	c #8B8D64",
"f@	c #7E8045",
"g@	c #76782D",
"h@	c #737620",
"i@	c #6C7118",
"j@	c #6B7118",
"k@	c #72761D",
"l@	c #747724",
"m@	c #797B37",
"n@	c #858857",
"o@	c #9A9C7E",
"p@	c #B3B4A3",
"q@	c #C9C9C1",
"r@	c #DBDBD9",
"s@	c #D4D3D3",
"t@	c #CBCBC7",
"u@	c #BDBDB3",
"v@	c #AAAA97",
"w@	c #959675",
"x@	c #838553",
"y@	c #8F9169",
"z@	c #A8A992",
"A@	c #BFBFB3",
"B@	c #D0D0CA",
"C@	c #D9D9D6",
"D@	c #DBDBDB",
"E@	c #D8D8D8",
"F@	c #D2D1CF",
"G@	c #C5C5BE",
"H@	c #B4B4A6",
"I@	c #A0A189",
"J@	c #8C8E66",
"K@	c #7C7E42",
"L@	c #757829",
"M@	c #78771F",
"N@	c #A48C36",
"O@	c #71741A",
"P@	c #70741A",
"Q@	c #747521",
"R@	c #7D7B3A",
"S@	c #908D63",
"T@	c #AEAB95",
"U@	c #C6C5BB",
"V@	c #D6D5D1",
"W@	c #DBDADA",
"X@	c #BFBFB6",
"Y@	c #ACAD9A",
"Z@	c #979879",
"`@	c #797C39",
" #	c #AE8E3C",
".#	c #A77E3D",
"+#	c #AB8E3A",
"@#	c #AA9335",
"##	c #B99E3B",
"$#	c #73751F",
"%#	c #747527",
"&#	c #777430",
"*#	c #867C4C",
"=#	c #A09478",
"-#	c #C1B9AB",
";#	c #D5D0CA",
">#	c #DBDAD8",
",#	c #D2D1D0",
"'#	c #C6C6C0",
")#	c #B7B7AB",
"!#	c #A4A58E",
"~#	c #8F916B",
"{#	c #7E8046",
"]#	c #70721C",
"^#	c #927F2E",
"/#	c #7F7A22",
"(#	c #C19F40",
"_#	c #91842B",
":#	c #71751B",
"<#	c #747629",
"[#	c #767537",
"}#	c #7A7042",
"|#	c #897656",
"1#	c #A28D79",
"2#	c #C2B3A5",
"3#	c #D1C8C0",
"4#	c #D2CFCA",
"5#	c #CCCBC6",
"6#	c #BEBEB5",
"7#	c #ADAE9D",
"8#	c #999B7D",
"9#	c #858757",
"0#	c #6B6E1A",
"a#	c #7E8023",
"b#	c #797B21",
"c#	c #737621",
"d#	c #767834",
"e#	c #787547",
"f#	c #7A6C51",
"g#	c #826656",
"h#	c #937261",
"i#	c #A9917F",
"j#	c #BBAD9E",
"k#	c #BFB9AC",
"l#	c #B5B4A5",
"m#	c #A0A088",
"n#	c #7D8045",
"o#	c #6C7218",
"p#	c #767920",
"q#	c #747723",
"r#	c #767835",
"s#	c #7A774C",
"t#	c #7D6F59",
"u#	c #82665A",
"v#	c #886556",
"w#	c #90755E",
"x#	c #9E8F76",
"y#	c #A19B7E",
"z#	c #94936F",
"A#	c #848654",
"B#	c #787B37",
"C#	c #6E7319",
"D#	c #75772F",
"E#	c #797848",
"F#	c #7F7658",
"G#	c #82705A",
"H#	c #816A4F",
"I#	c #7E6C44",
"J#	c #857B4E",
"K#	c #84814B",
"L#	c #797B35",
"M#	c #747725",
"N#	c #75782C",
"O#	c #7C7D48",
"P#	c #828059",
"Q#	c #817B57",
"R#	c #7B7344",
"S#	c #777232",
"T#	c #77762D",
"U#	c #76782A",
"V#	c #747622",
"W#	c #737622",
"X#	c #797B3B",
"Y#	c #86885F",
"Z#	c #8D8E6D",
"`#	c #87865F",
" $	c #767634",
".$	c #737423",
"+$	c #73751E",
"@$	c #737624",
"#$	c #797C3C",
"$$	c #85875C",
"%$	c #8B8D67",
"&$	c #838556",
"*$	c #747625",
"=$	c #75782B",
"-$	c #7C7F44",
";$	c #87895E",
">$	c #8A8C63",
",$	c #81834F",
"'$	c #787A1F",
")$	c #787B35",
"!$	c #838554",
"~$	c #8D8F6A",
"{$	c #8E906A",
"]$	c #7C7E22",
"^$	c #787B1F",
"/$	c #81843E",
"($	c #86885D",
"_$	c #939474",
":$	c #919270",
"<$	c #7C7F22",
"[$	c #7C7E23",
"}$	c #737835",
"|$	c #8B8D66",
"1$	c #898B63",
"2$	c #7F814B",
"3$	c #6F731A",
"4$	c #6A7017",
"5$	c #6C7219",
"6$	c #7B7D3F",
"7$	c #7E814A",
"8$	c #7D8048",
"9$	c #787B38",
"0$	c #72751E",
"a$	c #75771D",
"b$	c #777A1F",
"c$	c #727613",
"d$	c #75781C",
"e$	c #73771D",
"f$	c #6F751B",
"g$	c #7B7D22",
"h$	c #AAA79A",
"i$	c #868855",
"j$	c #6A7018",
"k$	c #767A20",
"l$	c #717415",
"m$	c #A6A495",
"n$	c #A6977F",
"o$	c #7A7D4B",
"p$	c #7D7F23",
"q$	c #76791E",
"r$	c #757843",
"s$	c #747844",
"t$	c #717419",
"u$	c #777B1F",
"v$	c #73771C",
"w$	c #777A1E",
"x$	c #767A15",
"y$	c #767A1F",
"z$	c #7A7C22",
"A$	c #71761C",
"B$	c #797C20",
"C$	c #828446",
"D$	c #ACA99E",
"E$	c #727737",
"F$	c #6A7117",
"G$	c #71761D",
"H$	c #71751C",
"I$	c #6E7210",
"J$	c #999683",
"K$	c #AB977E",
"L$	c #97957F",
"M$	c #6F7413",
"N$	c #717412",
"O$	c #7B7E1A",
"P$	c #7A7D22",
"Q$	c #707421",
"R$	c #727645",
"S$	c #70741E",
"T$	c #8C9383",
"U$	c #949C94",
"V$	c #6E741E",
"W$	c #757A3C",
"X$	c #989486",
"Y$	c #9D9485",
"Z$	c #798055",
"`$	c #868F7A",
" %	c #797E4A",
".%	c #6E7336",
"+%	c #6D733C",
"@%	c #717417",
"#%	c #9D8B70",
"$%	c #808868",
"%%	c #696E14",
"&%	c #6F7215",
"                                                                                                                                ",
"                                                                                                                                ",
"                                                                                                                                ",
"                                                                                                                                ",
"                                                                                                                                ",
"                      . + .     @                                                                                               ",
"                        # $ . # %                                                                                               ",
"                    $ $ & * # = -                                                                                               ",
"                      ; % - > , '                                                                                               ",
"                      ' )                     . !                                     ! ~ { ! ]   ^ /                           ",
"                                        % (   % _                                     ! + # ' : < [ } |                         ",
"                                        1 2 ( 3 4                                     ! 5 # 6 7 8 9 0 a                         ",
"                                          b $ c '                                     d 3 ; e f g h i j                         ",
"                                          k l                                           m n o p q r s t u                       ",
"                                                                                        v w x y z A s B u                       ",
"                                                                    ! 6                 C D E F G H I J                         ",
"                                                                  ! $ K                   L < M N O P Q R                       ",
"                                                                  4 S T                   R U V W X Y Z `  .                    ",
"                                                                  ' k                 .. .+.@.#.$.%.&.*.=.-...                  ",
"                                                                                    ;.>.,.'.).!.~.{.].^./.(...                  ",
"                                                                                ..;._.:.<.[.}.|.1.2.3.4.5.P ..                  ",
"                                                                              6.7.8.9.0.a.b.c.d.e.f.g.h.i.j...                  ",
"                                                                            k.l.m.n.o.p.q.r.s.t.u.v.w.x.y.z.                    ",
"                                                                        A.k.B.C.D.E.F.G.H.I.J.K.L.M.N.O. ...                    ",
"                                                                      A.P.Q.R.S.T.U.V.W.X.Y.Z.`. +.+++ .                        ",
"                                                                    @+#+$+%+&+*+=+-+;+>+,+'+)+!+~+{+                            ",
"                                                              ]+^+P.Q./+(+_+:+<+[+}+|+1+2+3+4+-.;.                              ",
"                                                            A.5+6+7+8+9+0+a+<+b+c+d+e+f+g+h+7...                                ",
"                                                          k.i+j+k+l+m+n+o+p+q+r+s+t+u+v+w+x+            $ 6     # .             ",
"                                                      A.y+z+A+B+C+D+a+E+F+G+H+I+J+K+L+A.                4 M+! # #               ",
"                N+. O+.                           A.k.P.P+Q+R+S+T+U+V+W+X+Y+Z+`+z+ @.@                  k S 6 1 1               ",
"          O++@. *   @@@@.                       A.y+#@$@%@&@*@=@-@;@>@,@'@)@!@~@{@A.                      - ]@                  ",
"            ] # ^@# @@/@O+                      @+(@_@:@<@[@-@E+}@|@1@Z+2@3@4@A.                                                ",
"            5@#   # 6@$ 4                   7@8@9@%@C+0@o+a@V+>@b@c@d@e@f@g@h@                                                  ",
"              i@  j@k@i@                l@m@n@o@p@q@[@r@-@s@t@u@v@w@x@4@l@                                                      ",
"                                      l@i+y@z@A@B@C@D@E@F@G@H@I@J@K@L@A.                M@N@6.O@P@                              ",
"                                  u Q@R@S@T@U@V@r@W@;@c+X@Y@Z@3@`@h@                  P@ #.#+#@###P@                            ",
"                                $#%#&#*#=#-#;#>#=@,#'#)#!#~#{#l@                        ]#^#/#(#_#:#                          ( ",
"  ! .                           <#[#}#|#1#2#3#4#5#6#7#8#9#@+                              :#' 0#'                               ",
". a#b#                        c#d#e#f#g#h#i#j#k#l#m#J@n#y+h@                                                                    ",
"  o#p#                        q#r#s#t#u#v#w#x#y#z#A#B#h@                                                                        ",
"    C#                        h@D#E#F#G#H#I#J#K#L#M#                                                                            ",
"                                N#O#P#Q#R#S#T#U#V#                                                                              ",
"                              W#X#Y#Z#`# $.$+$u                                                                                 ",
"                              @$#$$$%$&$*${                                                                                     ",
"                              =$-$;$>$,$A.                                            '$                                        ",
"                              )$!$~${$x@.@                                              ]${                                 . % ",
"                            ^$/$($_$:$3@W#                                            ^@3 (                                 O@<$",
"                          . [$}$!$|$1$2$W#                                          . @@i@3$                                  4$",
"                          :#5$7@6$7$8$9$0$                                          :#5$                                      P@",
"                              A.W#M#M#W#                          a$                                                            ",
"                                                                6 6   % ]$                                                      ",
"                                                            b$! > ]@$ $                                         c$d$            ",
"                                                            4$$ . e$# f$g$                                    W#h$i$            ",
"                                                              j@' 4 j$k$]@                                  l$m$n$o$            ",
"  @@^$    # !                                         p$]         :#O@              ]$b$    @ q$            < r$s$t$            ",
"+@b$] l N+u$                                          v$$ 6                       q$w$x$e$# y$                                  ",
"^$z$A$4$$ j@                                            5$]@                      B$C$D$E$$ F$N+]$  a$+@                        ",
"3$G$6   H$                                                                        I$J$K$L$M$  N$O$e$P$                      ! b$",
"  '                                                                                 Q$R$S$  0$T$U$V$o#                        ]$",
"                                                                                            W$X$Y$Z$`$ %                      4$",
"                                                                                              .%+%@%#%$%                      ' ",
"                                                                                                    %%&%                        ",
"                                                                                                                                "};
